<?xml version="1.0" encoding="UTF-8"?><svg id="Layer_2" xmlns="http://www.w3.org/2000/svg" viewBox="0 0 159.13 168.53"><defs><style>.cls-1{fill:#43b02a;}.cls-2{fill:#e3ddc2;stroke:#0a4635;stroke-linejoin:round;stroke-width:8.3px;}</style></defs><g id="Layer_1-2"><g><path class="cls-1" d="m14.69,71.93c-5.1,21.1.77,45.38,17.42,59.31,4.24,3.54,9.46,6.47,14.97,6.09,7.72-.54,13.44-7.2,17.79-13.6,5.89-8.66,11.1-18.03,13.18-28.29,2.67-13.19-.03-27.02-5.25-39.43-3.8-9.03-8.88-17.43-14.25-25.61-2.3-3.5-4.25-8.94-8.37-8.33-2.86.42-7.76,6.19-9.86,8.14-12.1,11.25-21.73,25.53-25.64,41.72Z"/><g><path class="cls-2" d="m70.87,31.64c-1.2-1.36-2.45-2.69-3.77-4.01-4.47-4.47-9.21-8.3-14.22-11.48-5.01,3.19-9.75,7.02-14.22,11.48-1.32,1.32-2.57,2.64-3.77,4.01,5.72,2.76,10.96,6.55,15.71,11.39.78.78,1.54,1.59,2.28,2.41,9.55,10.65,14.31,23.71,14.31,39.18s-4.78,27.92-14.31,38.36c-1.3,1.42-2.69,2.8-4.17,4.14-4.59,4.09-9.3,7.38-14.18,9.85,1.19,1.37,2.43,2.71,3.73,4.04,4.6,4.66,9.47,8.61,14.62,11.87,5.15-3.26,10.03-7.22,14.62-11.87,1.3-1.33,2.55-2.67,3.73-4.04,12.9-14.82,19.35-32.26,19.35-52.34s-6.58-38.17-19.72-52.97Z"/><path class="cls-2" d="m91.21,81.11l-2,21.89h40.49c-1.07,10.87-6.17,20.2-15.3,27.99-9.14,7.74-19.42,11.6-30.89,11.6-8.12,0-15.88-1.88-23.3-5.64-4.88-2.46-9.6-5.76-14.18-9.85-1.48-1.34-2.87-2.71-4.17-4.14-9.54-10.44-14.31-23.23-14.31-38.36s4.76-28.52,14.31-39.18c.73-.82,1.49-1.62,2.28-2.41,4.75-4.83,9.99-8.63,15.71-11.39,7.6-3.66,16.06-5.5,25.37-5.5,18.19,0,33.62,8.43,46.27,25.29l16.6-15.89c-9.67-11.07-19.49-19.07-29.49-24-10.46-4.93-21.72-7.39-33.78-7.39-16.06,0-30.37,4.01-42.96,12-5.01,3.19-9.75,7.02-14.22,11.48-1.32,1.32-2.57,2.64-3.77,4.01-13.15,14.8-19.72,32.47-19.72,52.97s6.45,37.52,19.35,52.34c1.19,1.37,2.43,2.71,3.73,4.04,4.6,4.66,9.47,8.61,14.62,11.87,12.09,7.68,25.71,11.52,40.86,11.52,22.12,0,40.35-8.06,54.68-24.2,6.33-7.19,10.83-14.92,13.5-23.19,2.73-8.92,4.1-19.19,4.1-30.79v-5.1h-63.78Z"/></g></g></g></svg>