<?xml version="1.0" encoding="UTF-8"?><svg id="Layer_2" xmlns="http://www.w3.org/2000/svg" viewBox="0 0 150.84 160.19"><defs><style>.cls-1{fill:#154734;}.cls-2{fill:#43b02a;}</style></defs><g id="Layer_1-2"><g><path class="cls-2" d="m57.78,106.21c-1.79,4.67-4.07,9.28-7.67,12.75-3.6,3.47-8.72,5.67-13.64,4.75-6.34-1.18-10.69-6.94-13.94-12.51-8.85-15.18-14.37-33.06-11.29-50.36,2.85-16.01,26.45-50.01,40.46-26.55,12.66,21.2,14.89,48.91,6.08,71.91Z"/><path class="cls-1" d="m87.05,76.95v21.91h38.52c-1.1,10.86-6.2,20.16-15.31,27.97-9.11,7.75-19.41,11.61-30.87,11.61-8.31,0-16.21-1.95-23.76-5.9-4.75-2.4-9.36-5.6-13.76-9.61-1.6-1.45-3.15-3-4.5-4.55-9.3-10.36-13.96-22.96-13.96-37.92s4.65-28.22,14.01-38.77c.8-.95,1.7-1.9,2.6-2.8,4.6-4.7,9.71-8.45,15.26-11.16,7.7-3.85,16.31-5.75,25.82-5.75,18.16,0,33.62,8.45,46.28,25.31l16.56-15.91c-9.66-11.06-19.46-19.06-29.47-23.96C104.01,2.45,92.75,0,80.7,0c-16.21,0-30.67,4.05-43.33,12.26-4.9,3.1-9.51,6.85-13.86,11.21-1.4,1.4-2.7,2.8-4,4.25C6.5,42.47,0,60.04,0,80.45s6.35,37.32,19.16,52.08c1.25,1.45,2.55,2.9,3.95,4.3,4.5,4.55,9.25,8.45,14.31,11.61,12.16,7.85,25.87,11.76,41.17,11.76,22.11,0,40.32-8.05,54.68-24.16,6.3-7.2,10.81-14.96,13.46-23.21,2.75-8.91,4.1-19.16,4.1-30.77v-5.1h-63.79Z"/><path class="cls-1" d="m55.28,27.52c-1.25-1.45-2.6-2.85-4-4.25-4.4-4.35-9-8.1-13.91-11.21-4.9,3.1-9.51,6.85-13.86,11.21-1.4,1.4-2.7,2.8-4,4.25,5.55,2.7,10.61,6.45,15.26,11.16.9.9,1.8,1.85,2.65,2.8,9.31,10.56,13.96,23.51,13.96,38.77s-4.65,27.57-14.01,37.92c-1.35,1.55-2.9,3.1-4.5,4.55-4.4,4-9.01,7.2-13.71,9.61,1.25,1.45,2.55,2.9,3.95,4.3,4.5,4.55,9.25,8.45,14.31,11.61,5-3.2,9.76-7.05,14.26-11.61,1.4-1.4,2.7-2.85,3.95-4.3,12.76-14.76,19.11-32.12,19.11-52.08s-6.45-37.97-19.46-52.73Z"/></g></g></svg>