<?xml version="1.0" encoding="UTF-8"?><svg id="Layer_2" xmlns="http://www.w3.org/2000/svg" viewBox="0 0 327.31 250.56"><defs><style>.cls-1{letter-spacing:.1em;}.cls-2{fill:#154734;}.cls-3,.cls-4{fill:#43b02a;}.cls-5{letter-spacing:.07em;}.cls-4{font-family:Futura-Bold, Futura;font-size:62.58px;font-weight:700;}</style></defs><g id="Layer_1-2"><g><path class="cls-3" d="m36.83,61.38c-1.03,2.7-2.35,5.36-4.43,7.37s-5.04,3.28-7.88,2.75c-3.66-.68-6.18-4.01-8.05-7.23-5.11-8.77-8.31-19.11-6.53-29.1,1.65-9.25,15.28-28.9,23.38-15.34,7.32,12.25,8.6,28.26,3.51,41.55Z"/><g><path class="cls-2" d="m53.74,44.46v12.66h22.26c-.64,6.27-3.58,11.65-8.85,16.16-5.26,4.48-11.22,6.71-17.84,6.71-4.8,0-9.37-1.13-13.73-3.41-2.75-1.39-5.41-3.24-7.95-5.55-.93-.84-1.82-1.73-2.6-2.63-5.38-5.98-8.07-13.27-8.07-21.91s2.69-16.31,8.09-22.41c.46-.55.98-1.1,1.5-1.62,2.66-2.72,5.61-4.89,8.82-6.45,4.45-2.23,9.42-3.32,14.92-3.32,10.49,0,19.43,4.89,26.74,14.63l9.57-9.19c-5.58-6.39-11.25-11.01-17.03-13.85C63.54,1.42,57.04,0,50.07,0c-9.37,0-17.72,2.34-25.04,7.08-2.83,1.79-5.49,3.96-8.01,6.48-.81.81-1.56,1.62-2.31,2.46C7.2,24.54,3.44,34.69,3.44,46.49s3.67,21.57,11.07,30.1c.72.84,1.47,1.68,2.28,2.49,2.6,2.63,5.35,4.89,8.27,6.71,7.03,4.54,14.95,6.79,23.79,6.79,12.78,0,23.3-4.65,31.6-13.96,3.64-4.16,6.24-8.64,7.78-13.41,1.59-5.15,2.37-11.07,2.37-17.78v-2.95h-36.86Z"/><path class="cls-2" d="m182.77,14.37V1.73h-49.2v89.16h49.2v-12.63h-35.76v-29.81h34.72v-12.66h-34.72V14.37h35.76Z"/><path class="cls-2" d="m301.53,13.67C292.45,4.6,281.55.06,268.86.06s-23.88,4.48-33.04,13.5c-9.19,9.02-13.82,19.8-13.82,32.35,0,14.28,5.06,25.85,15.15,34.66,9.16,7.95,19.49,11.94,31.02,11.94,13.01,0,24.11-4.48,33.33-13.44,9.14-8.93,13.73-19.83,13.73-32.64s-4.57-23.65-13.7-32.76Zm-9.51,56.55c-6.45,6.48-14.34,9.71-23.68,9.71-8.64,0-16.25-3.18-22.81-9.54-6.65-6.36-9.94-14.46-9.94-24.31s3.18-17.29,9.6-23.68c6.39-6.48,14.22-9.71,23.5-9.71s17.11,3.24,23.45,9.71c6.36,6.42,9.51,14.4,9.51,23.91s-3.21,17.37-9.63,23.91Z"/></g><path class="cls-2" d="m35.38,15.9c-.72-.84-1.5-1.65-2.31-2.46-2.54-2.52-5.2-4.68-8.04-6.48-2.83,1.79-5.49,3.96-8.01,6.48-.81.81-1.56,1.62-2.31,2.46,3.21,1.56,6.13,3.73,8.82,6.45.52.52,1.04,1.07,1.53,1.62,5.38,6.1,8.07,13.59,8.07,22.41s-2.69,15.93-8.09,21.91c-.78.9-1.68,1.79-2.6,2.63-2.54,2.31-5.2,4.16-7.92,5.55.72.84,1.47,1.68,2.28,2.49,2.6,2.63,5.35,4.89,8.27,6.71,2.89-1.85,5.64-4.08,8.24-6.71.81-.81,1.56-1.65,2.28-2.49,7.37-8.53,11.04-18.56,11.04-30.1s-3.73-21.94-11.25-30.47Z"/><text class="cls-4" transform="translate(0 148.87)"><tspan class="cls-5" x="0" y="0">G</tspan><tspan class="cls-1" x="59.58" y="0">ARDEN</tspan></text><g><path class="cls-2" d="m73.8,164.56v15.94c-7.78-6.5-15.82-9.76-24.14-9.76-9.16,0-16.89,3.29-23.16,9.88-6.32,6.55-9.47,14.56-9.47,24.03s3.16,17.25,9.47,23.68c6.32,6.43,14.05,9.64,23.22,9.64,4.74,0,8.76-.77,12.07-2.31,1.85-.77,3.76-1.81,5.75-3.12,1.98-1.31,4.07-2.89,6.26-4.74v16.23c-7.7,4.35-15.79,6.53-24.26,6.53-12.75,0-23.62-4.45-32.63-13.34-8.97-8.97-13.46-19.79-13.46-32.46,0-11.36,3.75-21.49,11.26-30.38,9.24-10.9,21.2-16.35,35.87-16.35,8.01,0,15.75,2.18,23.22,6.53Z"/><path class="cls-2" d="m116.06,159.76v76.53h26.22v12.65h-39.68v-89.18h13.46Z"/><path class="cls-2" d="m177.62,159.76v53.72c0,7.66,1.25,13.26,3.75,16.81,3.74,5.12,8.99,7.68,15.77,7.68s12.09-2.56,15.83-7.68c2.5-3.43,3.75-9.03,3.75-16.81v-53.72h13.46v57.41c0,9.4-2.93,17.13-8.78,23.22-6.59,6.78-14.67,10.17-24.26,10.17s-17.65-3.39-24.2-10.17c-5.85-6.08-8.78-13.82-8.78-23.22v-57.41h13.46Z"/><path class="cls-2" d="m263.38,248.94v-89.18h13.4c5.97,0,10.72.46,14.27,1.39,3.58.92,6.6,2.48,9.07,4.68,2.5,2.27,4.49,5.1,5.95,8.49,1.5,3.43,2.25,6.89,2.25,10.4,0,6.39-2.44,11.8-7.33,16.23,4.73,1.62,8.47,4.45,11.21,8.49,2.77,4,4.16,8.66,4.16,13.98,0,6.97-2.46,12.86-7.39,17.67-2.96,2.96-6.3,5.03-9.99,6.18-4.04,1.12-9.11,1.67-15.19,1.67h-20.39Zm13.46-50.88h4.22c5.01,0,8.67-1.11,11-3.32,2.33-2.21,3.5-5.48,3.5-9.79s-1.19-7.38-3.58-9.56c-2.39-2.18-5.85-3.26-10.4-3.26h-4.74v25.93Zm0,38.24h8.32c6.08,0,10.55-1.19,13.4-3.58,3-2.58,4.5-5.85,4.5-9.82s-1.44-7.08-4.33-9.7c-2.81-2.58-7.84-3.87-15.08-3.87h-6.82v26.97Z"/></g></g></g></svg>