<?xml version="1.0" encoding="UTF-8"?><svg id="Layer_2" xmlns="http://www.w3.org/2000/svg" viewBox="0 0 198 198"><defs><style>.cls-1{fill:#43b02a;}</style></defs><g id="Layer_1-2"><g><polygon class="cls-1" points="19.42 116.38 28.71 111.21 18.23 109.45 19.42 116.38"/><path class="cls-1" d="m40.19,135.93c.13-1.04-.2-2.22-.99-3.55l-.75-1.27-6.39,3.79.75,1.27c.79,1.33,1.67,2.19,2.64,2.57.97.38,1.97.27,3-.34s1.61-1.44,1.74-2.47Z"/><path class="cls-1" d="m58.16,155.48c-.6-.98-1.44-1.86-2.51-2.65l-1.45-1.07-10.03,13.56,1.45,1.07c1.09.81,2.19,1.36,3.3,1.65s2.18.35,3.21.19c1.03-.16,2.01-.54,2.93-1.14.92-.59,1.75-1.38,2.47-2.37.71-.96,1.22-1.98,1.51-3.05.3-1.07.37-2.13.23-3.16-.15-1.04-.52-2.04-1.12-3.02Z"/><path class="cls-1" d="m123.54,32.89c.78.78,1.7,1.4,2.75,1.85,1.05.45,2.13.68,3.24.71,1.11.02,2.17-.16,3.18-.54,1.01-.38,1.93-.94,2.74-1.7.81-.75,1.45-1.68,1.92-2.79.47-1.1.69-2.21.67-3.32s-.25-2.16-.68-3.15-1.04-1.88-1.82-2.66c-.78-.78-1.7-1.4-2.75-1.84-1.05-.45-2.13-.68-3.24-.71-1.11-.02-2.16.16-3.16.54s-1.91.95-2.72,1.71c-.81.75-1.46,1.68-1.92,2.79-.47,1.1-.69,2.21-.67,3.32.02,1.11.24,2.16.66,3.15.42.99,1.02,1.88,1.8,2.66Z"/><path class="cls-1" d="m165.34,81.99l5.59-1.68-.41-1.38c-.71-2.35-1.99-3.24-3.85-2.68s-2.44,2.01-1.74,4.36l.41,1.38Z"/><path class="cls-1" d="m176.52,78.63l6.12-1.84-.49-1.65c-.57-1.89-1.22-3.17-1.95-3.84-.73-.67-1.63-.84-2.7-.52-1.07.32-1.73.96-1.97,1.93-.24.96-.08,2.39.49,4.27l.5,1.65Z"/><path class="cls-1" d="m99,0C44.41,0,0,44.41,0,99s44.41,99,99,99,99-44.41,99-99S153.59,0,99,0Zm68.34,69.39c1.11.24,2.16.79,3.15,1.66-.12-1.13-.08-2.14.12-3.02.2-.88.53-1.65,1-2.3s1.06-1.2,1.76-1.64c.7-.43,1.49-.78,2.36-1.04,1.35-.41,2.62-.53,3.81-.37,1.19.16,2.27.56,3.24,1.2.97.64,1.82,1.52,2.54,2.64.73,1.12,1.32,2.44,1.78,3.97l3.62,12.05-28.86,8.67-3.36-11.17c-.8-2.65-.76-4.86.1-6.62.86-1.76,2.49-3,4.89-3.72,1.45-.44,2.74-.54,3.85-.3Zm-9.72-26.65c4.11,0,7.45,3.34,7.45,7.45s-3.34,7.45-7.45,7.45-7.45-3.34-7.45-7.45,3.34-7.45,7.45-7.45Zm-43.4-22.19c.88-2.06,2.07-3.81,3.59-5.27,1.52-1.45,3.23-2.56,5.14-3.3,1.91-.75,3.96-1.1,6.16-1.05,2.19.05,4.42.56,6.67,1.52,2.23.95,4.13,2.2,5.7,3.75,1.57,1.55,2.75,3.28,3.55,5.18.8,1.9,1.2,3.9,1.2,6s-.43,4.18-1.31,6.24c-.88,2.06-2.07,3.81-3.59,5.27-1.52,1.45-3.24,2.55-5.16,3.3-1.92.75-3.99,1.09-6.19,1.03s-4.42-.56-6.65-1.51c-2.25-.96-4.16-2.21-5.72-3.76-1.56-1.55-2.73-3.27-3.51-5.17-.79-1.9-1.18-3.9-1.18-6,0-2.1.43-4.18,1.31-6.24Zm-7.64-14.88l.11,6.63-9.31.15.08,5.03,8.79-.14.11,6.63-8.79.14.08,5.19,9.31-.15.11,6.63-17.14.28-.49-30.13,17.14-.28Zm-54.17,15.89c.72-1.83,1.83-3.5,3.32-5,1.49-1.5,3.35-2.74,5.56-3.72,2.88-1.27,5.67-1.76,8.39-1.47,2.72.29,5.29,1.45,7.7,3.5l-5.56,5.81c-1.3-1.23-2.6-1.95-3.9-2.17-1.3-.21-2.6-.03-3.89.54-1.07.47-1.96,1.1-2.66,1.89s-1.2,1.69-1.49,2.71-.39,2.13-.28,3.33c.11,1.2.45,2.45,1.02,3.74.52,1.17,1.15,2.19,1.89,3.05.75.87,1.58,1.53,2.52,1.99.93.46,1.94.7,3.02.7,1.08,0,2.22-.26,3.41-.78.71-.31,1.35-.69,1.94-1.14.59-.45,1.07-.97,1.43-1.55.37-.58.6-1.23.69-1.94.09-.71.02-1.5-.21-2.35l-5.89,2.6-2.45-5.56,14.22-6.27c.65,1.46,1.17,2.82,1.58,4.07.4,1.25.65,2.46.74,3.65.12,1.66-.01,3.24-.4,4.74-.39,1.5-1.01,2.88-1.86,4.14-.85,1.27-1.9,2.4-3.14,3.42-1.24,1.01-2.64,1.86-4.2,2.55-2.15.95-4.26,1.46-6.34,1.53-2.08.07-4.04-.25-5.87-.97-1.83-.72-3.5-1.82-4.99-3.3-1.5-1.48-2.72-3.3-3.68-5.47-.95-2.14-1.47-4.27-1.56-6.36-.1-2.1.22-4.06.94-5.89Zm-12.72,21.17c4.11,0,7.45,3.34,7.45,7.45s-3.34,7.45-7.45,7.45-7.45-3.34-7.45-7.45,3.34-7.45,7.45-7.45Zm-31.37,33.82c.56-2.28,1.45-4.26,2.66-5.95,1.21-1.69,2.66-3.04,4.35-4.05,1.69-1.01,3.58-1.66,5.66-1.94,2.09-.28,4.28-.14,6.58.43,2.28.56,4.27,1.44,5.99,2.65s3.08,2.65,4.09,4.34c1.01,1.69,1.65,3.58,1.93,5.68.28,2.1.13,4.33-.45,6.68-.75,3.05-2.07,5.57-3.96,7.54-1.89,1.98-4.38,3.3-7.48,3.96l-1.21-7.95c1.77-.28,3.14-.87,4.1-1.77.96-.9,1.61-2.04,1.95-3.41.28-1.14.32-2.23.12-3.26-.2-1.04-.61-1.98-1.24-2.84-.63-.85-1.45-1.61-2.47-2.25-1.02-.65-2.22-1.14-3.59-1.48-1.24-.31-2.43-.43-3.57-.37-1.14.06-2.18.32-3.11.78-.93.46-1.73,1.11-2.4,1.96-.66.85-1.15,1.91-1.46,3.18-.18.75-.28,1.5-.28,2.23,0,.74.11,1.43.35,2.08.24.65.61,1.23,1.12,1.74.51.51,1.17.93,1.99,1.27l1.54-6.25,5.9,1.45-3.72,15.09c-1.55-.38-2.95-.79-4.18-1.24-1.24-.44-2.35-.99-3.34-1.65-1.39-.92-2.56-1.99-3.51-3.21-.95-1.22-1.66-2.56-2.14-4.01s-.74-2.97-.79-4.58c-.04-1.6.14-3.23.55-4.89Zm.73,45.53l4.85-2.66-1.9-11.03-5.46-.88-1.42-8.23,31.64,6.19,1.45,8.43-27.75,16.41-1.42-8.23Zm17.45,36.12l-4.97-8.39,6.16-12.34-9.97,5.91-4-6.74,25.92-15.37,6.22,10.48c.86,1.44,1.39,2.83,1.61,4.16.21,1.33.16,2.56-.16,3.69-.32,1.13-.85,2.16-1.61,3.09-.75.93-1.68,1.71-2.78,2.37-1.97,1.17-3.85,1.64-5.64,1.42-1.79-.22-3.45-1.13-4.99-2.73l-5.79,14.44Zm33.32,15.27c-1.7,1.02-3.5,1.68-5.4,1.99-1.91.31-3.83.27-5.76-.14-1.94-.41-3.74-1.23-5.41-2.46l-9.32-6.89,17.92-24.22,9.32,6.89c1.65,1.22,2.95,2.7,3.91,4.43.96,1.73,1.56,3.55,1.83,5.46.26,1.9.17,3.82-.3,5.74s-1.29,3.69-2.48,5.3c-1.17,1.59-2.61,2.89-4.3,3.9Zm28.43-5.68l-8.94-2.6-1.4,4.84,8.44,2.45-1.85,6.37-8.44-2.45-1.45,4.99,8.94,2.6-1.85,6.37-16.46-4.78,8.4-28.93,16.46,4.78-1.85,6.37Zm30.4,21.93l-16.79-16.33,2.46,18.26-7.76,1.04-4.02-29.86,7.76-1.04,16.79,16.33-2.46-18.26,7.72-1.04,4.02,29.86-7.72,1.04Zm-19.66-34.88c-30.8,0-55.86-25.06-55.86-55.86s25.06-55.86,55.86-55.86,55.86,25.06,55.86,55.86-25.06,55.86-55.86,55.86Zm70.76,4.13c-.58,1.13-1.19,2.12-1.81,2.98-.62.86-1.3,1.63-2.04,2.32-1.52,1.42-3.24,2.49-5.17,3.22-1.93.73-3.91,1.07-5.94,1.02-2.03-.05-4.04-.49-6.02-1.32-1.98-.83-3.76-2.09-5.34-3.78-1.58-1.69-2.72-3.54-3.41-5.54-.69-2-.98-4.01-.87-6.02.11-2.01.59-3.96,1.45-5.85.86-1.88,2.06-3.54,3.6-4.98.88-.82,1.82-1.53,2.84-2.14,1.02-.61,2.18-1.15,3.48-1.64l6.39,6.83c-2.83-.38-5.22.34-7.17,2.16-.86.8-1.5,1.7-1.94,2.69s-.67,2-.7,3.03c-.03,1.03.16,2.05.55,3.07s.99,1.96,1.79,2.82c.82.88,1.72,1.54,2.72,2,.99.46,2.01.71,3.06.75,1.04.04,2.07-.11,3.08-.48,1.01-.36,1.93-.93,2.77-1.72,1.83-1.71,2.75-4.03,2.75-6.95l6.33,6.77-.39.75Zm8.59-11.75l-26.91-13.55,3.52-7,20.99,10.57,4.22-8.39,5.92,2.98-7.75,15.38Zm8.72-26.5c-2.42,1.86-5.96,2.48-10.61,1.86l-17.31-2.29,1.03-7.76,16.24,2.15c.87.12,1.77.2,2.69.25s1.77-.03,2.55-.27c.78-.23,1.45-.67,2.01-1.33.56-.65.92-1.62,1.09-2.92.17-1.29.07-2.32-.3-3.08-.37-.76-.9-1.36-1.6-1.8-.69-.44-1.49-.75-2.39-.94s-1.79-.34-2.66-.45l-16.24-2.15,1.02-7.72,17.31,2.29c4.65.62,7.9,2.13,9.76,4.54,1.86,2.41,2.49,5.82,1.91,10.23-.58,4.41-2.09,7.54-4.51,9.4Z"/><path class="cls-1" d="m83.72,76.52c.4.4.8.82,1.18,1.25,5.24,5.85,7.9,13.09,7.9,21.54s-2.66,15.39-7.91,21.13c-.36.39-.73.78-1.12,1.16,1.41,1.05,2.84,1.96,4.27,2.68.84.42,1.69.79,2.54,1.12.18-.2.37-.41.54-.61,5.05-5.8,8.08-12.5,9.06-19.98l.28-3.04c.05-.81.08-1.63.08-2.46,0-9.94-3.22-18.62-9.59-25.78,0,0,0,0,0,0-.16-.19-.34-.38-.51-.57-.9.31-1.77.67-2.62,1.08-1.42.69-2.79,1.53-4.1,2.49Z"/><path class="cls-1" d="m122.76,106.62c.6,0,1.17.25,1.58.7.4.45.6,1.04.54,1.64-.6,6.12-3.49,11.43-8.59,15.78-5.07,4.29-10.87,6.47-17.24,6.47-2.46,0-4.87-.33-7.22-.95-2.12,2.09-4.37,3.92-6.71,5.46,4.19,1.6,8.71,2.43,13.52,2.43,10.82,0,19.49-3.83,26.48-11.71,3.04-3.45,5.23-7.21,6.5-11.15,1.33-4.34,2-9.45,2-15.15v-.49h-28.67l-.22,2.41c-.06,1.12-.16,2.24-.31,3.33l-.11,1.23h18.46Z"/><path class="cls-1" d="m71.8,125.77c.13-.64.54-1.19,1.13-1.49,1.43-.72,2.86-1.63,4.27-2.68-.39-.38-.76-.77-1.12-1.16-5.25-5.75-7.91-12.85-7.91-21.13s2.66-15.69,7.89-21.54c.38-.43.78-.84,1.18-1.25-1.31-.97-2.67-1.81-4.1-2.49-.6-.29-1.03-.84-1.16-1.49-.08-.42-.03-.84.13-1.22-.09.08-.17.16-.26.25-.67.67-1.28,1.31-1.84,1.96-6.37,7.17-9.59,15.84-9.59,25.79s3.17,18.3,9.41,25.48c.56.65,1.16,1.3,1.83,1.98.1.1.19.18.29.28-.18-.4-.24-.84-.15-1.27Z"/><path class="cls-1" d="m99.92,67.16c9.3,0,17.36,4.02,23.98,11.96l5.34-5.11c-4.33-4.67-8.73-8.13-13.12-10.3-5.03-2.37-10.56-3.58-16.41-3.58-5.24,0-10.12.91-14.62,2.66,2.31,1.53,4.52,3.32,6.61,5.35,2.6-.65,5.35-.99,8.22-.99Z"/><path class="cls-1" d="m77.52,71.56h0c1.03.63,2.02,1.32,2.98,2.08,1.72-1.35,3.54-2.52,5.46-3.45.37-.18.75-.34,1.14-.51-1.23-1.08-2.49-2.08-3.79-2.97-2.02,1.39-3.97,3.02-5.8,4.85Z"/><path class="cls-1" d="m80.48,124.46c-1.06.83-2.13,1.58-3.2,2.25.02.02.03.03.05.05,1.89,1.92,3.91,3.61,5.99,5.04,1.37-.94,2.7-2,4-3.16-.4-.18-.8-.36-1.19-.56-1.9-.96-3.79-2.18-5.63-3.62Z"/><path class="cls-1" d="m104.41,105.39c.14-1.09.24-2.21.31-3.33l-.31,3.33Z"/><path class="cls-1" d="m89.5,129.53c-1.97,1.84-4.02,3.46-6.18,4.82-2.65-1.67-5.15-3.71-7.51-6.1-.67-.68-1.31-1.37-1.92-2.07,1.67-.84,3.31-1.9,4.91-3.11-.14-.12-.28-.23-.42-.35-.41-.37-.8-.74-1.18-1.11-1.41,1.05-2.84,1.96-4.27,2.68-.58.3-1,.84-1.13,1.49-.09.44-.02.88.15,1.27,2.15,2.14,4.45,4,6.84,5.51,2.01,1.27,4.12,2.32,6.32,3.16,2.33-1.54,4.58-3.37,6.71-5.46-.78-.21-1.56-.44-2.32-.72Z"/><path class="cls-1" d="m71.99,72.54c.13.65.56,1.2,1.16,1.49,1.42.69,2.79,1.52,4.1,2.49.02-.02.04-.05.07-.07.49-.49.99-.95,1.5-1.41-1.5-1.14-3.08-2.13-4.74-2.93.61-.7,1.26-1.38,1.93-2.06,2.29-2.29,4.73-4.26,7.3-5.9,2.1,1.33,4.1,2.9,6.01,4.67.77-.26,1.57-.48,2.37-.68-2.08-2.03-4.3-3.83-6.61-5.35-2.19.86-4.3,1.9-6.29,3.17-2.34,1.49-4.58,3.29-6.68,5.36-.16.38-.21.81-.13,1.22Z"/><path class="cls-1" d="m83.32,131.8c-2.08-1.43-4.09-3.12-5.99-5.04-.02-.02-.03-.03-.05-.05,1.08-.67,2.15-1.43,3.2-2.25-.57-.44-1.13-.91-1.69-1.4-1.6,1.22-3.23,2.27-4.91,3.11.61.71,1.25,1.39,1.92,2.07,2.36,2.39,4.86,4.42,7.51,6.1,2.16-1.36,4.21-2.98,6.18-4.82-.73-.26-1.46-.56-2.18-.89-1.29,1.16-2.63,2.22-4,3.16Z"/><path class="cls-1" d="m76.01,70.05c-.68.68-1.32,1.36-1.93,2.06,1.66.8,3.24,1.79,4.74,2.93.55-.49,1.11-.96,1.68-1.41-.96-.76-1.96-1.45-2.98-2.08h0c1.83-1.83,3.78-3.46,5.8-4.85,1.3.89,2.56,1.89,3.79,2.97.73-.31,1.47-.6,2.22-.86-1.91-1.77-3.91-3.34-6.01-4.67-2.57,1.64-5.01,3.6-7.3,5.9Z"/><path class="cls-1" d="m157.62,53.39c1.76,0,3.19-1.43,3.19-3.19s-1.43-3.19-3.19-3.19-3.19,1.43-3.19,3.19,1.43,3.19,3.19,3.19Z"/><path class="cls-1" d="m39.7,53.39c1.76,0,3.19-1.43,3.19-3.19s-1.43-3.19-3.19-3.19-3.19,1.43-3.19,3.19,1.43,3.19,3.19,3.19Z"/></g></g></svg>