<?xml version="1.0" encoding="UTF-8"?><svg id="Layer_2" xmlns="http://www.w3.org/2000/svg" viewBox="0 0 257.31 257.31"><defs><style>.cls-1,.cls-2{fill:#43b02a;}.cls-3{fill:#154734;font-family:Futura-Bold, Futura;font-size:45.6px;font-weight:700;}.cls-4,.cls-2{stroke-width:4.86px;}.cls-4,.cls-2,.cls-5{stroke:#0a4635;stroke-linejoin:round;}.cls-4,.cls-5{fill:#e3ddc2;}.cls-5{stroke-width:5.55px;}</style></defs><g id="Layer_1-2"><g><circle class="cls-1" cx="128.65" cy="128.65" r="128.65"/><path class="cls-5" d="m128.65,12.91c-63.93,0-115.75,51.82-115.75,115.75s51.82,115.75,115.75,115.75,115.75-51.82,115.75-115.75S192.58,12.91,128.65,12.91Zm0,176.72c-33.67,0-60.97-27.3-60.97-60.97s27.3-60.97,60.97-60.97,60.97,27.3,60.97,60.97-27.3,60.97-60.97,60.97Z"/><g><path class="cls-4" d="m121.3,97.97c-.7-.8-1.44-1.58-2.21-2.35-2.62-2.62-5.39-4.86-8.33-6.73-2.94,1.87-5.71,4.11-8.33,6.73-.77.77-1.51,1.55-2.21,2.35,3.35,1.62,6.42,3.84,9.21,6.67.46.46.9.93,1.33,1.41,5.6,6.24,8.39,13.89,8.39,22.95s-2.8,16.36-8.39,22.47c-.76.83-1.58,1.64-2.44,2.42-2.69,2.4-5.45,4.33-8.31,5.77.69.81,1.42,1.59,2.19,2.37,2.69,2.73,5.55,5.05,8.57,6.96,3.02-1.91,5.87-4.23,8.57-6.96.76-.78,1.49-1.56,2.19-2.37,7.56-8.69,11.34-18.9,11.34-30.67s-3.85-22.36-11.55-31.04Z"/><path class="cls-4" d="m133.22,126.96l-1.17,12.82h23.73c-.62,6.37-3.62,11.84-8.96,16.4-5.35,4.53-11.38,6.8-18.1,6.8-4.76,0-9.3-1.1-13.65-3.3-2.86-1.44-5.62-3.37-8.31-5.77-.87-.78-1.68-1.59-2.44-2.42-5.59-6.12-8.39-13.61-8.39-22.47s2.79-16.71,8.39-22.95c.43-.48.87-.95,1.33-1.41,2.78-2.83,5.85-5.05,9.21-6.67,4.45-2.15,9.41-3.22,14.87-3.22,10.66,0,19.7,4.94,27.11,14.82l9.73-9.31c-5.67-6.48-11.42-11.17-17.28-14.06-6.13-2.89-12.73-4.33-19.79-4.33-9.41,0-17.8,2.35-25.17,7.03-2.94,1.87-5.71,4.11-8.33,6.73-.77.77-1.51,1.55-2.21,2.35-7.71,8.67-11.55,19.02-11.55,31.04s3.78,21.98,11.34,30.67c.69.81,1.42,1.59,2.19,2.37,2.69,2.73,5.55,5.05,8.57,6.96,7.08,4.5,15.07,6.75,23.94,6.75,12.96,0,23.64-4.72,32.04-14.18,3.71-4.21,6.35-8.74,7.91-13.59,1.6-5.23,2.4-11.24,2.4-18.04v-2.99h-37.37Z"/></g><g><text class="cls-3" transform="translate(81.28 70.89) rotate(-23.8)"><tspan x="0" y="0">G</tspan></text><text class="cls-3" transform="translate(114.7 56.92) rotate(-.93)"><tspan x="0" y="0">E</tspan></text><text class="cls-3" transform="translate(137.41 54.16) rotate(23.06)"><tspan x="0" y="0">O</tspan></text></g><g><text class="cls-3" transform="translate(31 83.62) rotate(103.96)"><tspan x="0" y="0">G</tspan></text><text class="cls-3" transform="translate(21.48 128.47) rotate(80.34)"><tspan x="0" y="0">A</tspan></text><text class="cls-3" transform="translate(29.44 168.37) rotate(59.43)"><tspan x="0" y="0">R</tspan></text><text class="cls-3" transform="translate(51.39 202.84) rotate(36.58)"><tspan x="0" y="0">D</tspan></text><text class="cls-3" transform="translate(86.56 226.41) rotate(16.26)"><tspan x="0" y="0">E</tspan></text><text class="cls-3" transform="translate(122.18 236.08) rotate(-7.61)"><tspan x="0" y="0">N</tspan></text><text class="cls-3" transform="translate(171.69 225.44) rotate(-28.22)"><tspan x="0" y="0"> </tspan></text><text class="cls-3" transform="translate(189.6 216.24) rotate(-43.04)"><tspan x="0" y="0">C</tspan></text><text class="cls-3" transform="translate(217.53 186.99) rotate(-63.23)"><tspan x="0" y="0">L</tspan></text><text class="cls-3" transform="translate(230.88 161.14) rotate(-82.42)"><tspan x="0" y="0">U</tspan></text><text class="cls-3" transform="translate(234.36 113.37) rotate(-106.7)"><tspan x="0" y="0">B</tspan></text></g><circle class="cls-2" cx="195.55" cy="72.97" r="6.07"/><circle class="cls-2" cx="60.98" cy="72.97" r="6.07"/></g></g></svg>